<svg width="0" height="0" viewBox="0 0 0 0" fill="none" xmlns="http://www.w3.org/2000/svg">>
		<symbol
			xmlns="http://www.w3.org/2000/svg" viewBox="0 0 64 64" id="chevron-down">
			<path d="M32 48.1c-1.3 0-2.4-.5-3.5-1.3L.8 20.7C-.3 19.6-.3 18 .8 17c1.1-1.1 2.7-1.1 3.7 0L32 42.8l27.5-26.1c1.1-1.1 2.7-1.1 3.7 0 1.1 1.1 1.1 2.7 0 3.7L35.5 46.5c-1.1 1.4-2.2 1.6-3.5 1.6z"></path>
		</symbol>
		<symbol
			xmlns="http://www.w3.org/2000/svg" viewBox="0 0 64 64" id="chevron-left">
			<path d="M21.1 32L47.2 4.5c1.1-1.1 1.1-2.7 0-3.7s-2.7-1.1-3.7 0L17.4 28.5c-1.9 1.9-1.9 5.1 0 6.9l26.1 27.7c.5.5 1.3.8 1.9.8.5 0 1.3-.3 1.9-.8 1.1-1.1 1.1-2.7 0-3.7L21.1 32z"></path>
		</symbol>
		<symbol
			xmlns="http://www.w3.org/2000/svg" viewBox="0 0 64 64" id="chevron-right">
			<path d="M46.8 28.5L20.6.8c-1.1-1.1-2.7-1.1-3.7 0-1.1 1.1-1.1 2.7 0 3.7L42.8 32 16.6 59.5c-1.1 1.1-1.1 2.7 0 3.7.5.5 1.1.8 1.9.8s1.3-.3 1.9-.8l26.1-27.7c2.1-1.9 2.1-5.1.3-7z"></path>
		</symbol>
		<symbol
			xmlns="http://www.w3.org/2000/svg" viewBox="0 0 64 64" id="chevron-up">
			<path d="M2.7 48c-.8 0-1.3-.3-1.9-.8-1.1-1.1-1.1-2.7 0-3.7l27.7-26.1c1.9-1.9 5.1-1.9 6.9 0l27.7 26.1c1.1 1.1 1.1 2.7 0 3.7-1.1 1.1-2.7 1.1-3.7 0L32 21.4 4.5 47.5c-.5.3-1 .5-1.8.5z"></path>
		</symbol>
		<symbol
			xmlns="http://www.w3.org/2000/svg" viewBox="0 0 64 64" id="facebook">
			<path d="M37.2 64H28c-2.5 0-4.5-2-4.5-4.5V37H17c-2.5 0-4.5-2-4.5-4.5v-6.9c0-2.5 2-4.6 4.5-4.6h6.5v-5.5c0-9.1 6.2-15.5 15-15.5H47c1.4 0 2.5 1.1 2.5 2.5v13c0 1.4-1.1 2.5-2.5 2.5h-5.5v3H47c1.4.1 2.7.7 3.5 1.8.8 1.1 1.2 2.4.9 3.8l-1.3 6.7c-.3 2.1-2.1 3.7-4.4 3.7h-4.3v22.5c.1 2.5-1.9 4.5-4.2 4.5zm-8.7-5h8V34.5c0-1.4 1.1-2.5 2.5-2.5h6.3l1.2-6H39c-1.4 0-2.5-1.1-2.5-2.5v-8c0-1.4 1.1-2.5 2.5-2.5h5.5V5h-6c-6.1 0-10 4.1-10 10.5v8c0 1.4-1.1 2.5-2.5 2.5h-8.5v6H26c1.4 0 2.5 1.1 2.5 2.5V59z"></path>
		</symbol>
		<symbol
			xmlns="http://www.w3.org/2000/svg" viewBox="0 0 64 64" id="instagram">
			<path d="M32 16.9c-8.3 0-15 6.8-15 15.1s6.7 15.1 15 15.1S47 40.3 47 32s-6.7-15.1-15-15.1zm0 25.2c-5.5 0-10-4.5-10-10.1s4.5-10.1 10-10.1S42 26.4 42 32s-4.5 10.1-10 10.1zM47 10c-2.8 0-5 2.3-5 5s2.2 5 5 5 5-2.3 5-5-2.2-5-5-5z"></path>
			<path d="M48 0H16C7.2 0 0 7.2 0 16v31.7C0 56.7 7.3 64 16.3 64h31.5C56.7 64 64 56.7 64 47.7V16c0-8.8-7.2-16-16-16zm11 47.7C59 53.9 54 59 47.8 59H16.3C10.1 59 5 54 5 47.8V16C5 9.9 9.9 5 16 5h32c6.1 0 11 4.9 11 11v31.7z"></path>
		</symbol>
		<symbol
			xmlns="http://www.w3.org/2000/svg" viewBox="0 0 64 64" id="linkedin">
			<path d="M14.5 62.8H5.6c-3.1 0-5.6-2.5-5.6-5.5V27.9c0-3 2.5-5.5 5.6-5.5h8.9c3 0 5.6 2.5 5.6 5.5v29.4c.1 3-2.5 5.5-5.6 5.5zM5.6 27.4c-.3 0-.6.2-.6.5v29.4c0 .2.2.5.6.5h8.9c.3 0 .6-.2.6-.5V27.9c0-.2-.3-.5-.6-.5H5.6zm52.8 35.4h-8.9c-3.1 0-5.6-2.5-5.6-5.5V45.2c0-.6-.5-1-1.1-1-.6 0-1.1.5-1.1 1v12c0 3-2.5 5.5-5.6 5.5h-8.9c-3.1 0-5.6-2.5-5.6-5.5V27.9c0-3 2.5-5.5 5.6-5.5H36c1.9 0 3.5.9 4.5 2.3.4-.2.8-.4 1.1-.6 3.1-1.4 6.6-1.9 9.8-1.5 7 .8 12.3 6.7 12.5 13.6v21.2c.1 2.9-2.4 5.4-5.5 5.4zM42.7 39.2c3.4 0 6.1 2.7 6.1 6v12.1c0 .2.2.5.6.5h8.9c.3 0 .6-.2.6-.5V36.2c-.1-4.3-3.7-8.1-8.1-8.6-2.3-.3-4.9.1-7.2 1.1-1.1.5-2.2 1.1-3.2 1.8l-3.9 2.8v-5.4c0-.2-.2-.5-.6-.5H27c-.3 0-.6.2-.6.5v29.4c0 .2.2.5.6.5h9c.3 0 .6-.2.6-.5v-12c0-3.4 2.7-6.1 6.1-6.1zm-32-17.3C4.9 21.9.1 17.3.1 11.5S4.8 1.2 10.7 1.2s10.6 4.6 10.6 10.4-4.8 10.3-10.6 10.3zm0-15.7c-3.1 0-5.6 2.4-5.6 5.4S7.6 17 10.7 17s5.6-2.4 5.6-5.4c0-3.1-2.5-5.4-5.6-5.4z"></path>
		</symbol>
		<symbol
			xmlns="http://www.w3.org/2000/svg" viewBox="0 0 64 64" id="spinner-solid">
			<path d="M31.9 63.7C14.4 63.7 0 49.3 0 31.9S14.4.3 31.9.3c4.7 0 9.4 1.1 13.9 3 1.4.6 1.9 2.2 1.4 3.6S45 8.8 43.6 8.3C39.9 6.6 36 5.8 32.1 5.8c-14.4 0-26 11.6-26 26s11.6 26 26 26c10 0 19.1-5.5 23.5-14.7 1.7-3.6 2.5-7.5 2.5-11.4 0-2.8-.3-5.3-1.1-7.8-.6-1.4.3-3 1.9-3.6 1.4-.6 3 .3 3.6 1.9.8 3 1.4 6.4 1.4 9.4 0 4.7-1.1 9.4-3 13.9-5.8 11-17.1 18.2-29 18.2z"></path>
		</symbol>
		<symbol
			xmlns="http://www.w3.org/2000/svg" viewBox="0 0 64 64" id="stackoverflow">
			<path d="M50.7 58.3h-40V41.2H5V64h51.3V41.2h-5.6zM37.468 3.402L42.046.006l16.98 22.888-4.578 3.396zm-9.613 10.119L31.5 9.14l21.913 18.223-3.644 4.382z"></path>
			<path d="M16.4 46.9h28.5v5.7H16.4zm32.5-13.8L23.1 21l-2.5 5.2 25.9 12.1zm-2.8 6.7l-27.9-5.9-1.3 5.6 28 5.9z"></path>
		</symbol>
		<symbol
			xmlns="http://www.w3.org/2000/svg" viewBox="0 0 64 64" id="twitter">
			<path d="M22.2 58c-5.4 0-13.3-1-20-5.8-2-1.4-2.8-4.1-1.8-6.4.9-2.3 3.4-3.6 5.9-3.1 0 0 1 .2 2.5.1-1-1.4-1.9-3-2.5-4.7-.2-.6-.3-1.1-.3-1.7-2.5-2.9-3.8-6.5-3.8-10.5 0-.9.2-1.8.7-2.5C2 20 1.7 15.5 4.6 10.7 5.5 9.3 7 8.3 8.7 8.1h.2c1.8-.1 3.4.6 4.5 1.8.7.7 6.1 6.4 13 8.3C28 11.2 34.4 6 42.1 6c3.4 0 6.7 1 9.3 2.9.7-.2 1.6-.5 2.4-1.1 1.6-1.1 3.7-1.3 5.4-.4 1.7.8 2.9 2.4 3.1 4.3v.9c1.4 1.4 1.9 3.4 1.3 5.2-.5 1.7-2.1 3.8-5.4 6.8-.2 7.4-3.7 27.2-28.6 32.8-.2 0-3.2.6-7.4.6zM5.4 47.6c-.2 0-.3.1-.3.1v.1c-.1.1-.1.2 0 .3 5.6 4.1 12.4 4.9 17.1 4.9 3.7 0 6.3-.5 6.4-.5 22.6-5.1 24.8-23.6 24.9-29.2 0-.7.3-1.4.8-1.8 4.2-3.7 4.7-5 4.7-5.1.1-.2-.1-.4-.2-.4l-.1-.1c-1.1-.5-1.7-1.8-1.3-3 .1-.3.1-.5.1-.7 0-.1-.1-.2-.2-.3-.1 0-.1-.1-.2-.1s-.2 0-.4.1c-2.2 1.5-4.5 2-5.6 2.1-.7.1-1.3-.1-1.8-.5-1.9-1.6-4.5-2.4-7.1-2.4-6.1 0-11 4.5-11.2 10.4 0 .7-.3 1.4-.9 1.8-.5.5-1.2.7-1.9.6-9.5-1.3-17-8.9-18.5-10.4l-.1-.1c-.1-.1-.3-.1-.4-.1-.2 0-.3.2-.4.3-1.8 3-2 6.2-.7 9.4.4 1 .2 2.2-.7 2.9l-.2.2c0 3.2 1 5.8 3.2 7.8.7.7.9 1.6.7 2.5v.3c.8 2.5 2.4 4.5 4.6 5.8.8.5 1.3 1.4 1.2 2.4-.1 1-.8 1.8-1.7 2.1-4.6 1.5-9.5.8-9.7.7 0-.1-.1-.1-.1-.1zm53.1-31.9zM-5.7.9zM32 32z"></path>
		</symbol>
</svg>
